<?xml version="1.0" encoding="UTF-8" standalone="no"?>
<svg width="118px" height="127px" viewBox="0 0 118 127" version="1.1" xmlns="http://www.w3.org/2000/svg" xmlns:xlink="http://www.w3.org/1999/xlink">
    <!-- Generator: Sketch 50.2 (55047) - http://www.bohemiancoding.com/sketch -->
    <title>Group 4</title>
    <desc>Created with Sketch.</desc>
    <defs></defs>
    <g id="Page-1" stroke="none" stroke-width="1" fill="none" fill-rule="evenodd">
        <g id="iPad-Copy-22" transform="translate(-647.000000, -19.000000)">
            <g id="Group-4" transform="translate(650.000000, 19.000000)">
                <g id="Group-3">
                    <g id="Group">
                        <path d="M66.9626181,63.8408604 L113.451175,63.8408604 L113.451175,65.2920354 C113.451175,76.6993194 104.203744,85.9467502 92.7964602,85.9467502 L87.6173329,85.9467502 C76.2100489,85.9467502 66.9626181,76.6993194 66.9626181,65.2920354 L66.9626181,63.8408604 Z" id="Rectangle-176-Copy" stroke="#EBE3E3" stroke-width="2.90234997" fill="#EBE3E3" stroke-linecap="round" stroke-linejoin="round" transform="translate(90.120999, 74.893805) scale(-1, 1) rotate(-360.000000) translate(-90.120999, -74.893805) "></path>
                        <path d="M41.4919133,62.5486726 L76.5770522,62.5486726 C92.788809,62.5486726 105.931034,75.6908981 105.931034,91.9026549 L105.931034,91.9026549 C105.931034,108.114412 92.788809,121.256637 76.5770522,121.256637 L41.4919133,121.256637 C25.2801566,121.256637 12.137931,108.114412 12.137931,91.9026549 L12.137931,91.9026549 C12.137931,75.6908981 25.2801566,62.5486726 41.4919133,62.5486726 Z" id="Rectangle-24" fill="#DED8D8"></path>
                        <ellipse id="Oval-3" fill="#DB3E3E" cx="49.5914692" cy="33.4745631" rx="11.5225037" ry="11.5165873"></ellipse>
                        <ellipse id="Oval-3" fill="#EF4C4C" cx="67.1697601" cy="19.1599172" rx="19.1697601" ry="19.1599172"></ellipse>
                        <path d="M-1.0712453,63.8408604 L50.9345529,63.8408604 L50.9345529,65.2920354 C50.9345529,78.5174603 40.2132277,89.2387856 26.9878027,89.2387856 L22.8755049,89.2387856 C9.65007996,89.2387856 -1.0712453,78.5174603 -1.0712453,65.2920354 L-1.0712453,63.8408604 Z" id="Rectangle-176" stroke="#EBE3E3" stroke-width="2.90234997" fill="#EBE3E3" stroke-linecap="round" stroke-linejoin="round" transform="translate(24.931654, 76.539823) scale(-1, 1) rotate(-360.000000) translate(-24.931654, -76.539823) "></path>
                        <rect id="Rectangle-27" fill="#686868" x="83.3103448" y="28.5309735" width="7.17241379" height="13.7168142" rx="3.5862069"></rect>
                        <g id="Group-2" transform="translate(54.068966, 98.212389)" fill="#D4C9C9">
                            <path d="M20.9655172,3.19744231e-14 L33.6551724,3.19744231e-14 L33.6551724,0.787915777 C33.6551724,4.29206729 30.8144963,7.13274336 27.3103448,7.13274336 L27.3103448,7.13274336 C23.8061933,7.13274336 20.9655172,4.29206729 20.9655172,0.787915777 L20.9655172,3.19744231e-14 Z" id="Rectangle-176" transform="translate(27.310345, 3.566372) scale(-1, 1) rotate(-360.000000) translate(-27.310345, -3.566372) "></path>
                            <path d="M-8.26162055e-16,3.8191672e-14 L12.6896552,3.8191672e-14 L12.6896552,0.787915777 C12.6896552,4.29206729 9.8489791,7.13274336 6.34482759,7.13274336 L6.34482759,7.13274336 C2.84067607,7.13274336 2.08925759e-16,4.29206729 -1.77635684e-15,0.787915777 L-8.26162055e-16,3.8191672e-14 Z" id="Rectangle-176" transform="translate(6.344828, 3.566372) scale(-1, 1) rotate(-360.000000) translate(-6.344828, -3.566372) "></path>
                            <path d="M10.4827586,10.4247788 L23.1724138,10.4247788 L23.1724138,11.2126945 C23.1724138,14.7168461 20.3317377,17.5575221 16.8275862,17.5575221 L16.8275862,17.5575221 C13.3234347,17.5575221 10.4827586,14.7168461 10.4827586,11.2126945 L10.4827586,10.4247788 Z" id="Rectangle-176" transform="translate(16.827586, 13.991150) scale(-1, 1) rotate(-360.000000) translate(-16.827586, -13.991150) "></path>
                        </g>
                        <rect id="Rectangle-25" fill="#D9D0D0" x="52.4137931" y="18.1061947" width="35.3103448" height="74.619469" rx="17.6551724"></rect>
                        <path d="M69.4497575,44.4424779 L78.8515987,44.4424779 L81.4474372,61.6140795 C82.0662099,65.7072914 79.2496203,69.5271095 75.1564085,70.1458822 C74.7855787,70.2019407 74.4110645,70.2300885 74.0360215,70.2300885 L74.0360215,70.2300885 C69.9325184,70.2300885 66.605972,66.903542 66.605972,62.8000389 C66.605972,62.406742 66.6371996,62.0140659 66.6993606,61.6257123 L69.4497575,44.4424779 Z" id="Rectangle" fill="#EF4C4C"></path>
                        <path d="M81.594141,33.4676991 L82.267928,33.4676991 C88.6321544,33.4676991 93.7913793,38.626924 93.7913793,44.9911504 L93.7913793,45.5411504 L70.0706897,45.5411504 L70.0706897,44.9911504 C70.0706897,38.626924 75.2299145,33.4676991 81.594141,33.4676991 Z" id="Rectangle-26" stroke="#E5AD0F" stroke-width="1.1" fill="#E5AD0F" stroke-linecap="round" stroke-linejoin="round"></path>
                        <rect id="Rectangle-27" fill="#686868" x="60.137931" y="28.5309735" width="7.17241379" height="13.7168142" rx="3.5862069"></rect>
                        <path d="M84.5511853,37.583535 C85.2058636,37.583535 85.9822168,37.7592195 86.7060342,38.0656751" id="Path-10" stroke="#FFFFFF" stroke-width="4.95" stroke-linecap="round" stroke-linejoin="round" transform="translate(85.628610, 37.857871) rotate(10.000000) translate(-85.628610, -37.857871) "></path>
                    </g>
                </g>
                <path d="M48.8275862,123.176991 L71.6892131,123.176991" id="Line" stroke="#E5AD0F" stroke-width="7.15" stroke-linecap="round" stroke-linejoin="round"></path>
            </g>
        </g>
    </g>
</svg>