<?xml version="1.0" encoding="UTF-8" standalone="no"?>
<svg width="297px" height="310px" viewBox="0 0 297 310" version="1.1" xmlns="http://www.w3.org/2000/svg" xmlns:xlink="http://www.w3.org/1999/xlink">
    <!-- Generator: Sketch 50.2 (55047) - http://www.bohemiancoding.com/sketch -->
    <title>Group 8</title>
    <desc>Created with Sketch.</desc>
    <defs>
        <path d="M27.7368421,0 L27.7368421,0 C43.055477,-2.81398758e-15 55.4736842,12.4182072 55.4736842,27.7368421 L55.4736842,47.6254557 C55.4736842,57.5447559 47.4325026,65.5859375 37.5132024,65.5859375 L17.9604818,65.5859375 C8.04118159,65.5859375 5.6198181e-15,57.5447559 0,47.6254557 L7.10542736e-15,27.7368421 C5.22943564e-15,12.4182072 12.4182072,2.81398758e-15 27.7368421,0 Z" id="path-1"></path>
        <path d="M38.5308707,7.13549896 C48.8027626,13.5412993 56.6367236,16.7441994 62.0327537,16.7441994 C69.8451645,16.7441994 86.8524588,11.8435585 113.054636,2.04227664 L113.054637,2.04227697 C125.780266,-2.7179183 139.955328,3.73934205 144.715523,16.4649716 C145.746678,19.2215997 146.274808,22.1408929 146.274808,25.0840676 L146.274808,103.723606 C146.274808,143.864463 113.734215,176.405056 73.5933582,176.405056 L73.5933582,176.405056 C33.4525018,176.405056 0.911908309,143.864463 0.911908309,103.723606 L0.911908203,28.0100674 C0.911908249,14.423268 11.9261854,3.40899094 25.5129848,3.40899098 C30.1154335,3.408991 34.6255891,4.70007092 38.5308707,7.13549896 Z" id="path-3"></path>
        <path d="M21.5750775,0.511640536 L21.5750775,0.511640536 C33.0438936,0.511640536 42.341206,9.80895296 42.341206,21.2777691 L42.341206,39.5738791 C42.341206,51.0426952 33.0438936,60.3400076 21.5750775,60.3400076 L21.5750775,60.3400076 C10.1062614,60.3400076 0.808948982,51.0426952 0.808948982,39.5738791 L0.808948982,21.2777691 C0.808948982,9.80895296 10.1062614,0.511640536 21.5750775,0.511640536 Z" id="path-5"></path>
        <path d="M21.0140862,0.511640536 L21.0140862,0.511640536 C32.4829023,0.511640536 41.7802147,9.80895296 41.7802147,21.2777691 L41.7802147,39.5738791 C41.7802147,51.0426952 32.4829023,60.3400076 21.0140862,60.3400076 L21.0140862,60.3400076 C9.54527011,60.3400076 0.247957688,51.0426952 0.247957688,39.5738791 L0.247957688,21.2777691 C0.247957688,9.80895296 9.54527011,0.511640536 21.0140862,0.511640536 Z" id="path-7"></path>
        <path d="M61.9894169,0.170867051 C62.4724726,-0.0669579238 63.0408157,-0.0559596886 63.5143098,0.200375861 L107.064849,19.623203 L156.514102,4.22922986 C157.724799,3.85232955 158.894467,4.91590672 158.634122,6.15696029 C150.82439,43.3856162 117.851924,70.4675694 79.3352042,70.4675694 C40.8184848,70.4675694 7.84601794,43.3856162 0.0362860726,6.15696029 C-0.200943021,5.02609941 0.759817357,4.00432979 1.90305479,4.17164991 L35.4524131,9.08181318 L61.9894169,0.170867051 Z" id="path-9"></path>
    </defs>
    <g id="Page-1" stroke="none" stroke-width="1" fill="none" fill-rule="evenodd">
        <g id="iPad-Copy-19" transform="translate(-374.000000, -458.000000)">
            <g id="Group-8" transform="translate(363.000000, 441.000000)">
                <path d="M48.3272408,144.297685 C51.8272408,149.797685 61.3272408,163.297685 76.8272408,165.797685" id="Path-7" stroke="#78C800" stroke-width="17" stroke-linecap="round" transform="translate(62.577241, 155.047685) rotate(-27.000000) translate(-62.577241, -155.047685) "></path>
                <g id="Group-23-Copy" transform="translate(211.665069, 83.285712) rotate(-8.000000) translate(-211.665069, -83.285712) translate(179.165069, 43.285712)">
                    <ellipse id="Oval-61" fill="#FF9000" cx="32.0102779" cy="48.3943011" rx="31.625294" ry="31.6056989"></ellipse>
                    <ellipse id="Oval-3" fill="#FF9000" cx="49.7648288" cy="52.2757027" rx="3.88380803" ry="3.88140162"></ellipse>
                    <ellipse id="Oval-3-Copy" fill="#FF9000" cx="41.7197979" cy="64.1971506" rx="5.82571205" ry="5.82210243"></ellipse>
                    <path d="M47.2938512,33.1900401 C48.8753061,33.1900401 55.4001777,24.7287933 55.3037918,17.2772245 C55.2074058,9.82565571 48.685042,1.1199338 47.2938512,1.1199338 C45.9026603,1.1199338 39.291142,9.69647137 39.2839105,17.2772245 C39.2766791,24.8579776 45.7123962,33.1900401 47.2938512,33.1900401 Z" id="Oval-2" fill="#5ABB1A" transform="translate(47.294377, 17.154987) scale(-1, -1) rotate(-313.000000) translate(-47.294377, -17.154987) "></path>
                </g>
                <g id="Group-23" transform="translate(203.144300, 99.758334) rotate(58.000000) translate(-203.144300, -99.758334) translate(170.644300, 59.758334)">
                    <ellipse id="Oval-61" fill="#FFA600" cx="32.0102779" cy="48.3943011" rx="31.625294" ry="31.6056989"></ellipse>
                    <ellipse id="Oval-3" fill="#FF9000" cx="49.7648288" cy="52.2757027" rx="3.88380803" ry="3.88140162"></ellipse>
                    <ellipse id="Oval-3-Copy" fill="#FF9000" cx="41.7197979" cy="64.1971506" rx="5.82571205" ry="5.82210243"></ellipse>
                    <path d="M47.2938512,33.1900401 C48.8753061,33.1900401 55.4001777,24.7287933 55.3037918,17.2772245 C55.2074058,9.82565571 48.685042,1.1199338 47.2938512,1.1199338 C45.9026603,1.1199338 39.291142,9.69647137 39.2839105,17.2772245 C39.2766791,24.8579776 45.7123962,33.1900401 47.2938512,33.1900401 Z" id="Oval-2" fill="#5ABB1A" transform="translate(47.294377, 17.154987) scale(-1, -1) rotate(-313.000000) translate(-47.294377, -17.154987) "></path>
                </g>
                <g id="Group-4" transform="translate(116.759895, 99.649889) rotate(-96.000000) translate(-116.759895, -99.649889) translate(68.759895, 52.649889)">
                    <g id="Group-2" transform="translate(47.792389, 47.104547) rotate(-39.000000) translate(-47.792389, -47.104547) translate(10.792389, 17.104547)">
                        <g id="Group-3" transform="translate(41.633466, 0.000000)"></g>
                        <g id="Group" transform="translate(36.000000, 37.949636) rotate(-360.000000) translate(-36.000000, -37.949636) translate(0.000000, 15.949636)" fill="#FFBC00">
                            <rect id="Rectangle-210" x="4.92031873" y="0" width="61.3267184" height="43.9156919" rx="21.957846"></rect>
                            <rect id="Rectangle" x="0" y="16.6417359" width="71.2799435" height="12.4813019" rx="6.24065096"></rect>
                            <ellipse id="Oval-3" cx="30.7797857" cy="32.3607375" rx="3.21849071" ry="3.25449666"></ellipse>
                            <ellipse id="Oval-3-Copy" cx="19.3928794" cy="26.798439" rx="4.80015438" ry="4.85385475"></ellipse>
                        </g>
                    </g>
                </g>
                <g id="Group-4-Copy" transform="translate(102.000000, 46.000000)">
                    <path d="M61.6870113,38.897893 C63.4429787,38.897893 70.6878656,30.5478681 70.5808435,23.1942492 C70.4738214,15.8406302 63.2317191,7.24934383 61.6870113,7.24934383 C60.1423034,7.24934383 52.8012085,15.713144 52.7931791,23.1942492 C52.7851496,30.6753544 59.9310439,38.897893 61.6870113,38.897893 Z" id="Oval-2-Copy" fill="#50AF12" transform="translate(61.687595, 23.073618) scale(1, -1) rotate(-683.000000) translate(-61.687595, -23.073618) "></path>
                    <g id="Group-2" transform="translate(47.500000, 46.500000) rotate(-39.000000) translate(-47.500000, -46.500000) translate(10.976096, 16.376682)">
                        <g id="Group-3" transform="translate(41.633466, 0.000000)"></g>
                        <g id="Group" transform="translate(35.766932, 38.065490) rotate(-360.000000) translate(-35.766932, -38.065490) translate(0.000000, 15.949636)">
                            <rect id="Rectangle-210" fill="#FFD300" x="4.92031873" y="0" width="61.3267184" height="43.9156919" rx="21.957846"></rect>
                            <rect id="Rectangle" fill="#FFD300" x="0" y="16.6417359" width="71.2799435" height="12.4813019" rx="6.24065096"></rect>
                            <ellipse id="Oval-3" fill="#FFBC00" cx="30.7797857" cy="32.3607375" rx="3.21849071" ry="3.25449666"></ellipse>
                            <ellipse id="Oval-3-Copy" fill="#FFBC00" cx="19.3928794" cy="26.798439" rx="4.80015438" ry="4.85385475"></ellipse>
                        </g>
                    </g>
                    <path d="M56.3882065,44.9988182 C58.1441739,44.9988182 65.3890608,36.6487933 65.2820387,29.2951743 C65.1750166,21.9415554 57.9329143,13.350269 56.3882065,13.350269 C54.8434987,13.350269 47.5024037,21.8140691 47.4943743,29.2951743 C47.4863448,36.7762795 54.6322391,44.9988182 56.3882065,44.9988182 Z" id="Oval-2-Copy" fill="#5ABB1A" transform="translate(56.388790, 29.174544) scale(1, -1) rotate(-630.000000) translate(-56.388790, -29.174544) "></path>
                </g>
                <g id="Group-2" transform="translate(266.194864, 67.796461) rotate(-330.000000) translate(-266.194864, -67.796461) translate(231.194864, 10.296461)">
                    <path d="M35.1439968,42.66774 C37.292272,42.66774 46.0248358,29.6018494 46.0248358,21.4965012 C46.0248358,13.391153 37.0338141,7.10542736e-15 35.1439968,7.10542736e-15 C33.2541796,7.55919959e-15 24.2631579,13.391153 24.2631579,21.4965012 C24.2631579,29.6018494 32.9957217,42.66774 35.1439968,42.66774 Z" id="Oval-2-Copy-2" fill="#5ABB1A" transform="translate(35.143997, 21.333870) scale(1, -1) rotate(-360.000000) translate(-35.143997, -21.333870) "></path>
                    <path d="M28.3074167,49.9857209 C30.3981599,49.9857209 38.8968614,36.7228793 38.8968614,28.4953537 C38.8968614,20.2678282 30.1466237,6.67482128 28.3074167,6.67482128 C26.4682097,6.67482128 17.717972,20.2678282 17.717972,28.4953537 C17.717972,36.7228793 26.2166734,49.9857209 28.3074167,49.9857209 Z" id="Oval-2" fill="#51AF13" transform="translate(28.307417, 28.330271) scale(1, -1) rotate(-325.000000) translate(-28.307417, -28.330271) "></path>
                    <path d="M42.6232061,49.9857209 C44.7139494,49.9857209 53.2126509,36.7228793 53.2126509,28.4953537 C53.2126509,20.2678282 44.4624131,6.67482128 42.6232061,6.67482128 C40.7839992,6.67482128 32.0337614,20.2678282 32.0337614,28.4953537 C32.0337614,36.7228793 40.5324629,49.9857209 42.6232061,49.9857209 Z" id="Oval-2-Copy" fill="#51AF13" transform="translate(42.623206, 28.330271) scale(-1, -1) rotate(-325.000000) translate(-42.623206, -28.330271) "></path>
                    <path d="M21.5492939,59.4028159 C23.4247105,59.4028159 31.0481263,48.0656956 31.0481263,41.03278 C31.0481263,33.9998643 23.19908,22.3805177 21.5492939,22.3805177 C19.8995078,22.3805177 12.0504615,33.9998643 12.0504615,41.03278 C12.0504615,48.0656956 19.6738774,59.4028159 21.5492939,59.4028159 Z" id="Oval-2" fill="#5ABB1A" transform="translate(21.549294, 40.891667) scale(1, -1) rotate(-305.000000) translate(-21.549294, -40.891667) "></path>
                    <path d="M48.3913992,59.4028159 C50.2668157,59.4028159 57.8902316,48.0656956 57.8902316,41.03278 C57.8902316,33.9998643 50.0411853,22.3805177 48.3913992,22.3805177 C46.7416131,22.3805177 38.8925668,33.9998643 38.8925668,41.03278 C38.8925668,48.0656956 46.5159826,59.4028159 48.3913992,59.4028159 Z" id="Oval-2-Copy-3" fill="#5ABB1A" transform="translate(48.391399, 40.891667) scale(-1, -1) rotate(-305.000000) translate(-48.391399, -40.891667) "></path>
                    <g id="Oval-+-Oval-+-Oval-Copy-+-Oval-+-Oval-+-Oval-Copy-Mask" transform="translate(6.368421, 49.414062)">
                        <g id="Rectangle-41-+-Rectangle-41-+-Rectangle-41-+-Rectangle-41-+-Rectangle-41-+-Rectangle-41-+-Rectangle-41-+-Rectangle-41-+-Rectangle-41-+-Rectangle-41-+-Rectangle-41-+-Rectangle-41-Mask">
                            <mask id="mask-2" fill="white">
                                <use xlink:href="#path-1"></use>
                            </mask>
                            <use id="Mask" fill="#D78E30" xlink:href="#path-1"></use>
                            <g id="Group-3" mask="url(#mask-2)">
                                <g transform="translate(-12.526316, -9.882813)" id="Group">
                                    <g>
                                        <rect id="Rectangle-41" stroke="#D78E30" stroke-width="4.49012044" fill="#E8AE63" transform="translate(41.157895, 15.273437) rotate(-315.000000) translate(-41.157895, -15.273437) " x="29.9654661" y="4.04400228" width="22.3848573" height="22.4588704" rx="5.38814453"></rect>
                                        <rect id="Rectangle-41" stroke="#D78E30" stroke-width="4.49012044" fill="#E8AE63" transform="translate(68.000000, 15.273437) rotate(-315.000000) translate(-68.000000, -15.273437) " x="56.8075714" y="4.04400228" width="22.3848573" height="22.4588704" rx="5.38814453"></rect>
                                        <rect id="Rectangle-41" stroke="#D78E30" stroke-width="4.49012044" fill="#E8AE63" transform="translate(14.315789, 13.476562) rotate(-315.000000) translate(-14.315789, -13.476562) " x="3.12336083" y="2.24712728" width="22.3848573" height="22.4588704" rx="5.38814453"></rect>
                                        <rect id="Rectangle-41" stroke="#D78E30" stroke-width="4.49012044" fill="#E8AE63" transform="translate(27.736842, 29.648437) rotate(-315.000000) translate(-27.736842, -29.648437) " x="16.5444135" y="18.4190023" width="22.3848573" height="22.4588704" rx="5.38814453"></rect>
                                        <rect id="Rectangle-41" stroke="#D78E30" stroke-width="4.49012044" fill="#E8AE63" transform="translate(53.684211, 29.648437) rotate(-315.000000) translate(-53.684211, -29.648437) " x="42.4917819" y="18.4190023" width="22.3848573" height="22.4588704" rx="5.38814453"></rect>
                                        <rect id="Rectangle-41" stroke="#D78E30" stroke-width="4.49012044" fill="#E8AE63" transform="translate(41.157895, 43.125000) rotate(-315.000000) translate(-41.157895, -43.125000) " x="29.9654661" y="31.8955648" width="22.3848573" height="22.4588704" rx="5.38814453"></rect>
                                        <rect id="Rectangle-41" stroke="#D78E30" stroke-width="4.49012044" fill="#E8AE63" transform="translate(68.000000, 43.125000) rotate(-315.000000) translate(-68.000000, -43.125000) " x="56.8075714" y="31.8955648" width="22.3848573" height="22.4588704" rx="5.38814453"></rect>
                                        <rect id="Rectangle-41" stroke="#D78E30" stroke-width="4.49012044" fill="#E8AE63" transform="translate(13.421053, 43.125000) rotate(-315.000000) translate(-13.421053, -43.125000) " x="2.22862399" y="31.8955648" width="22.3848573" height="22.4588704" rx="5.38814453"></rect>
                                        <rect id="Rectangle-41" stroke="#D78E30" stroke-width="4.49012044" fill="#E8AE63" transform="translate(27.736842, 57.500000) rotate(-315.000000) translate(-27.736842, -57.500000) " x="16.5444135" y="46.2705648" width="22.3848573" height="22.4588704" rx="5.38814453"></rect>
                                        <rect id="Rectangle-41" stroke="#D78E30" stroke-width="4.49012044" fill="#E8AE63" transform="translate(53.684211, 57.500000) rotate(-315.000000) translate(-53.684211, -57.500000) " x="42.4917819" y="46.2705648" width="22.3848573" height="22.4588704" rx="5.38814453"></rect>
                                        <rect id="Rectangle-41" stroke="#D78E30" stroke-width="4.49012044" fill="#E8AE63" transform="translate(14.315789, 71.875000) rotate(-315.000000) translate(-14.315789, -71.875000) " x="3.12336083" y="60.6455648" width="22.3848573" height="22.4588704" rx="5.38814453"></rect>
                                        <rect id="Rectangle-41" stroke="#D78E30" stroke-width="4.49012044" fill="#E8AE63" transform="translate(41.157895, 71.875000) rotate(-315.000000) translate(-41.157895, -71.875000) " x="29.9654661" y="60.6455648" width="22.3848573" height="22.4588704" rx="5.38814453"></rect>
                                        <rect id="Rectangle-41" stroke="#D78E30" stroke-width="4.49012044" fill="#E8AE63" transform="translate(67.105263, 71.875000) rotate(-315.000000) translate(-67.105263, -71.875000) " x="55.9128345" y="60.6455648" width="22.3848573" height="22.4588704" rx="5.38814453"></rect>
                                    </g>
                                </g>
                            </g>
                        </g>
                    </g>
                    <path d="M26.8115673,65.2613301 C27.9174876,65.2613301 32.4129637,58.2458127 32.4129637,53.8937779 C32.4129637,49.541743 27.7844348,42.3515813 26.8115673,42.3515813 C25.8386997,42.3515813 21.2101708,49.541743 21.2101708,53.8937779 C21.2101708,58.2458127 25.705647,65.2613301 26.8115673,65.2613301 Z" id="Oval-2" fill="#51AF13" transform="translate(26.811567, 53.806456) rotate(-309.000000) translate(-26.811567, -53.806456) "></path>
                    <path d="M43.8115673,65.2613301 C44.9174876,65.2613301 49.4129637,58.2458127 49.4129637,53.8937779 C49.4129637,49.541743 44.7844348,42.3515813 43.8115673,42.3515813 C42.8386997,42.3515813 38.2101708,49.541743 38.2101708,53.8937779 C38.2101708,58.2458127 42.705647,65.2613301 43.8115673,65.2613301 Z" id="Oval-2" fill="#51AF13" transform="translate(43.811567, 53.806456) scale(-1, 1) rotate(-309.000000) translate(-43.811567, -53.806456) "></path>
                </g>
                <g id="Group-Copy" transform="translate(85.626933, 94.176915) rotate(-330.000000) translate(-85.626933, -94.176915) translate(43.626933, 58.176915)">
                    <path d="M42,0.5 L42,0.5 C43.4113444,0.5 44.5554651,1.64412068 44.5554651,3.05546506 C44.5554651,3.12298396 44.5527891,3.19047634 44.5474436,3.2577833 L43.3570411,18.2464621 C43.3008269,18.9542706 42.7100373,19.5 42,19.5 L42,19.5 C41.2899627,19.5 40.6991731,18.9542706 40.6429589,18.2464621 L39.4525564,3.2577833 C39.3408191,1.85086904 40.3907675,0.619758721 41.7976818,0.508021439 C41.8649887,0.502675913 41.9324811,0.5 42,0.5 Z" id="Rectangle-197" fill="#743D00" opacity="0.807142857"></path>
                    <rect id="Rectangle-196" fill="#EB4242" transform="translate(32.202037, 37.337749) rotate(-31.000000) translate(-32.202037, -37.337749) " x="11.3277854" y="10.5877486" width="41.748503" height="53.5" rx="20.8742515"></rect>
                    <rect id="Rectangle-196" fill="#EB4242" transform="translate(51.818803, 37.337749) scale(-1, 1) rotate(-31.000000) translate(-51.818803, -37.337749) " x="30.9445519" y="10.5877486" width="41.748503" height="53.5" rx="20.8742515"></rect>
                    <ellipse id="Oval" fill="#FF5D5D" cx="26.6586826" cy="29" rx="7.54491018" ry="7.5"></ellipse>
                    <ellipse id="Oval-3" fill="#E74444" cx="61.1137725" cy="40.75" rx="4.2754491" ry="4.25"></ellipse>
                    <ellipse id="Oval-3-Copy" fill="#E74444" cx="54.8263473" cy="49" rx="3.01796407" ry="3"></ellipse>
                </g>
                <g id="Group" transform="translate(51.000000, 84.000000) rotate(-14.000000) translate(-51.000000, -84.000000) translate(9.000000, 42.000000)">
                    <path d="M42,13.5 L42,13.5 C43.4113444,13.5 44.5554651,14.6441207 44.5554651,16.0554651 C44.5554651,16.122984 44.5527891,16.1904763 44.5474436,16.2577833 L43.3570411,31.2464621 C43.3008269,31.9542706 42.7100373,32.5 42,32.5 L42,32.5 C41.2899627,32.5 40.6991731,31.9542706 40.6429589,31.2464621 L39.4525564,16.2577833 C39.3408191,14.850869 40.3907675,13.6197587 41.7976818,13.5080214 C41.8649887,13.5026759 41.9324811,13.5 42,13.5 Z" id="Rectangle-197" fill="#743D00" opacity="0.807142857"></path>
                    <rect id="Rectangle-196" fill="#FF4B4B" transform="translate(32.202037, 50.337749) rotate(-31.000000) translate(-32.202037, -50.337749) " x="11.3277854" y="23.5877486" width="41.748503" height="53.5" rx="20.8742515"></rect>
                    <rect id="Rectangle-196" fill="#FF4B4B" transform="translate(51.818803, 50.337749) scale(-1, 1) rotate(-31.000000) translate(-51.818803, -50.337749) " x="30.9445519" y="23.5877486" width="41.748503" height="53.5" rx="20.8742515"></rect>
                    <ellipse id="Oval" fill="#FF5D5D" cx="26.6586826" cy="42" rx="7.54491018" ry="7.5"></ellipse>
                    <path d="M56.1714113,27.3787201 C57.483606,27.3787201 62.8975459,20.395557 62.8175707,14.2456927 C62.7375955,8.09582833 57.3257365,0.910897201 56.1714113,0.910897201 C55.0170861,0.910897201 49.5312521,7.98921103 49.5252519,14.2456927 C49.5192517,20.5021743 54.8592166,27.3787201 56.1714113,27.3787201 Z" id="Oval-2" fill="#5ABB1A" transform="translate(56.171847, 14.144809) scale(-1, -1) rotate(-313.000000) translate(-56.171847, -14.144809) "></path>
                    <ellipse id="Oval-3" fill="#E74444" cx="61.1137725" cy="53.75" rx="4.2754491" ry="4.25"></ellipse>
                    <ellipse id="Oval-3-Copy" fill="#E74444" cx="54.8263473" cy="62" rx="3.01796407" ry="3"></ellipse>
                </g>
                <circle id="Oval-21-Copy-10" fill="#7269EF" cx="107" cy="83" r="10"></circle>
                <path d="M117.189899,99.8294215 C118.771354,99.8294215 125.296226,91.3681747 125.19984,83.9166059 C125.103454,76.4650371 118.58109,67.7593152 117.189899,67.7593152 C115.798708,67.7593152 109.18719,76.3358528 109.179958,83.9166059 C109.172727,91.497359 115.608444,99.8294215 117.189899,99.8294215 Z" id="Oval-2" fill="#5ABB1A" transform="translate(117.190424, 83.794368) scale(-1, -1) rotate(-313.000000) translate(-117.190424, -83.794368) "></path>
                <path d="M94.9542735,87.9270526 C96.5357284,87.9270526 103.0606,79.4658058 102.964214,72.014237 C102.867828,64.5626682 96.3454644,55.8569463 94.9542735,55.8569463 C93.5630827,55.8569463 86.9515644,64.4334838 86.9443329,72.014237 C86.9371014,79.5949901 93.3728186,87.9270526 94.9542735,87.9270526 Z" id="Oval-2-Copy-4" fill="#5ABB1A" transform="translate(94.954799, 71.891999) scale(-1, -1) rotate(-30.000000) translate(-94.954799, -71.891999) "></path>
                <circle id="Oval-21-Copy-9" fill="#7269EF" cx="117" cy="93" r="10"></circle>
                <circle id="Oval-21-Copy-8" fill="#7269EF" cx="92" cy="83" r="10"></circle>
                <circle id="Oval-21-Copy" fill="#8A82FF" cx="101" cy="88" r="10"></circle>
                <g id="Group-11-Copy-3" transform="translate(23.000000, 132.000000)">
                    <path d="M20.0427891,27.7317264 L126.607839,54.2512411 C132.319749,55.6726928 134.980254,62.2426928 131.862089,67.2263792 C116.880415,91.1712224 87.7332078,103.027563 59.5789356,96.0211601 C31.4246635,89.0147575 11.2659449,64.8882666 9.30058724,36.7260271 C8.89153356,30.8645658 14.3308796,26.3102748 20.0427891,27.7317264 Z" id="Combined-Shape-Copy-31" fill="#78C800" fill-rule="nonzero" transform="translate(71.231168, 62.744205) rotate(32.000000) translate(-71.231168, -62.744205) "></path>
                    <path d="M135.042789,27.7317264 L241.607839,54.2512411 C247.319749,55.6726928 249.980254,62.2426928 246.862089,67.2263792 C231.880415,91.1712224 202.733208,103.027563 174.578936,96.0211601 C146.424664,89.0147575 126.265945,64.8882666 124.300587,36.7260271 C123.891534,30.8645658 129.33088,26.3102748 135.042789,27.7317264 Z" id="Combined-Shape-Copy-33" fill="#78C800" fill-rule="nonzero" transform="translate(186.231168, 62.744205) scale(-1, 1) rotate(32.000000) translate(-186.231168, -62.744205) "></path>
                    <rect id="Rectangle-4-Copy-5" fill="#F49000" transform="translate(108.672095, 185.396603) rotate(-90.000000) translate(-108.672095, -185.396603) " x="99.3273376" y="168.62391" width="18.6895157" height="33.545385" rx="9.34475783"></rect>
                    <path d="M150.204353,168.62391 L150.204353,168.62391 C155.36532,168.62391 159.54911,172.807701 159.54911,177.968668 L159.54911,192.824537 C159.54911,197.985505 155.36532,202.169295 150.204353,202.169295 L150.204353,202.169295 C145.043385,202.169295 140.859595,197.985505 140.859595,192.824537 L140.859595,177.968668 C140.859595,172.807701 145.043385,168.62391 150.204353,168.62391 Z" id="Rectangle-4-Copy-10" fill="#F49000" transform="translate(150.204353, 185.396603) rotate(-90.000000) translate(-150.204353, -185.396603) "></path>
                    <g id="Group-9" transform="translate(55.325712, 0.000000)">
                        <mask id="mask-4" fill="white">
                            <use xlink:href="#path-3"></use>
                        </mask>
                        <use id="Rectangle-7-Copy-4" fill="#78C800" xlink:href="#path-3"></use>
                        <g id="Group-7" mask="url(#mask-4)" fill="#8EE000">
                            <g transform="translate(8.391211, 7.464115)">
                                <path d="M52.3353632,18.3261529 L103.831882,31.1959174 C106.592106,31.8857395 107.877769,35.0741218 106.370947,37.4926755 C99.1311992,49.1129671 85.0460963,54.8667792 71.4408195,51.4666133 C57.8355427,48.0664474 48.0940391,36.3580032 47.1442992,22.6910341 C46.946628,19.8465014 49.5751388,17.6363307 52.3353632,18.3261529 Z" id="Combined-Shape-Copy-32" fill-rule="nonzero" transform="translate(77.071647, 35.317503) rotate(-62.000000) translate(-77.071647, -35.317503) "></path>
                                <path d="M4.91936976,18.3261529 L56.4158883,31.1959174 C59.1761127,31.8857395 60.4617758,35.0741218 58.9549532,37.4926755 C51.7152057,49.1129671 37.6301028,54.8667792 24.024826,51.4666133 C10.4195493,48.0664474 0.678045593,36.3580032 -0.27169427,22.6910341 C-0.469365462,19.8465014 2.15914533,17.6363307 4.91936976,18.3261529 Z" id="Combined-Shape-Copy-32" fill-rule="nonzero" transform="translate(29.655654, 35.317503) scale(-1, 1) rotate(-62.000000) translate(-29.655654, -35.317503) "></path>
                                <path d="M40.053161,31.3611394 C47.6857668,39.800056 59.0351683,39.6375854 66.6635105,31.2559809 C71.749072,25.6682445 73.159516,41.7066859 70.8948424,79.3713051 L35.0785249,79.3713051 C33.3065451,41.7385836 34.9647571,25.735195 40.053161,31.3611394 Z" id="Path-36-Copy-4" fill-rule="evenodd"></path>
                            </g>
                        </g>
                        <path d="M23.9206379,26.6612242 L23.9206379,26.6612242 C40.4548477,26.6612242 53.8584732,40.0648496 53.8584732,56.5990594 L53.8584732,81.7972519 C53.8584732,98.3314618 40.4548477,111.735087 23.9206379,111.735087 L23.9206379,111.735087 C7.386428,111.735087 -6.01719741,98.3314618 -6.01719741,81.7972519 L-6.01719741,56.5990594 C-6.01719741,40.0648496 7.386428,26.6612242 23.9206379,26.6612242 Z" id="Rectangle-130-Copy-19" fill="#8EE000" mask="url(#mask-4)"></path>
                        <path d="M99.0248027,26.6612242 L99.0248027,26.6612242 C115.559013,26.6612242 128.962638,40.0648496 128.962638,56.5990594 L128.962638,81.7972519 C128.962638,98.3314618 115.559013,111.735087 99.0248027,111.735087 L99.0248027,111.735087 C82.4905928,111.735087 69.0869674,98.3314618 69.0869674,81.7972519 L69.0869674,56.5990594 C69.0869674,40.0648496 82.4905928,26.6612242 99.0248027,26.6612242 Z" id="Rectangle-130-Copy-20" fill="#8EE000" mask="url(#mask-4)"></path>
                        <g id="Group-6" mask="url(#mask-4)">
                            <g transform="translate(4.661784, 38.253589)">
                                <g id="Combined-Shape-+-Oval-22-Mask" stroke="none" stroke-width="1" fill-rule="evenodd" transform="translate(1.000000, 0.000000)">
                                    <mask id="mask-6" fill="white">
                                        <use xlink:href="#path-5"></use>
                                    </mask>
                                    <use id="Mask" fill="#FFFFFF" xlink:href="#path-5"></use>
                                    <rect id="Rectangle-4" fill="#4C4C4C" mask="url(#mask-6)" x="10.5885433" y="12" width="26" height="41" rx="13"></rect>
                                    <circle id="Oval-4" fill="#FFFFFF" mask="url(#mask-6)" cx="13.5885433" cy="19" r="6"></circle>
                                </g>
                                <path d="M0.367292069,49.6193176 C12.422958,51.4637374 24.478624,55.728733 36.5342899,62.4143044" id="Path-3" stroke="#8EE000" stroke-width="16.5805361"></path>
                            </g>
                        </g>
                        <g id="Group-4" mask="url(#mask-4)">
                            <g transform="translate(79.250327, 38.253589)">
                                <g id="Combined-Shape-+-Oval-22-Mask" stroke="none" stroke-width="1" fill-rule="evenodd">
                                    <mask id="mask-8" fill="white">
                                        <use xlink:href="#path-7"></use>
                                    </mask>
                                    <use id="Mask" fill="#FFFFFF" xlink:href="#path-7"></use>
                                    <rect id="Rectangle-4" fill="#4C4C4C" mask="url(#mask-8)" x="7" y="12" width="26" height="41" rx="13"></rect>
                                    <circle id="Oval-4" fill="#FFFFFF" mask="url(#mask-8)" cx="10" cy="19" r="6"></circle>
                                </g>
                                <path d="M8.84326289,49.6193176 C20.8989288,51.4637374 32.9545948,55.728733 45.0102608,62.4143044" id="Path-3" stroke="#8EE000" stroke-width="16.5805361" transform="translate(26.926762, 56.016811) scale(-1, 1) translate(-26.926762, -56.016811) "></path>
                            </g>
                        </g>
                    </g>
                    <g id="Group-10" transform="translate(99.146481, 78.373206)">
                        <rect id="Rectangle-2" fill="#F49000" x="5.59414074" y="1.86602871" width="20.2565612" height="22.0028032" rx="10.1282806"></rect>
                        <path d="M0.0764822612,11.8016627 C1.1903921,5.03673992 7.14670397,0 14.1795929,0 C21.2124817,0 27.1687936,5.03673992 28.2827035,11.8016627 L28.3591857,12.2661496 L21.3910927,14.6685354 L0,12.2661496 L0.0764822612,11.8016627 Z" id="Combined-Shape" fill="#FFC200" fill-rule="nonzero" transform="translate(14.179593, 7.334268) scale(-1, 1) translate(-14.179593, -7.334268) "></path>
                        <path d="M10.2559247,5.74738558 C12.4989154,4.3043005 14.7419061,4.3043005 16.9848968,5.74738558" id="Path-37" stroke="#FFDE00" stroke-width="4.06979992" stroke-linecap="round" stroke-linejoin="round"></path>
                    </g>
                    <g id="Oval-3-Copy-5" transform="translate(48.623374, 114.501717)">
                        <mask id="mask-10" fill="white">
                            <use xlink:href="#path-9"></use>
                        </mask>
                        <use id="Mask" fill="#CDF68F" fill-rule="nonzero" xlink:href="#path-9"></use>
                        <ellipse id="Oval-3" fill="#B2E762" mask="url(#mask-10)" transform="translate(111.809472, 56.537934) rotate(-1.000000) translate(-111.809472, -56.537934) " cx="111.809472" cy="56.5379336" rx="32.0630103" ry="31.9562233"></ellipse>
                        <ellipse id="Oval-3-Copy" fill="#B2E762" mask="url(#mask-10)" transform="translate(40.284295, 9.013294) rotate(-1.000000) translate(-40.284295, -9.013294) " cx="40.284295" cy="9.01329376" rx="26.308111" ry="26.2204909"></ellipse>
                    </g>
                </g>
                <path d="M235.785143,145.972606 C239.285143,151.472606 247.566232,159.37805 258.701468,160.514005" id="Path-7-Copy" stroke="#78C800" stroke-width="17" stroke-linecap="round" transform="translate(247.243306, 153.243306) rotate(-45.000000) translate(-247.243306, -153.243306) "></path>
                <path d="M15,96 L285,96 L285,96 C285,126.927946 259.927946,152 229,152 L71,152 C40.072054,152 15,126.927946 15,96 Z" id="Rectangle-67" stroke="#F3A534" stroke-width="8" fill="#F1A441" stroke-linecap="round" stroke-linejoin="round"></path>
                <path d="M21.2639058,121 L279.047346,121 C281.786318,121 284.006693,123.220375 284.006693,125.959347 C284.006693,127.060411 283.640276,128.130167 282.965197,129 L278.40782,134.872135 C277.365973,136.214544 275.762122,137 274.062857,137 L26.8258527,137 C25.2019839,137 23.6611141,136.282403 22.6160882,135.039475 L17.538234,129 C15.8082238,126.942368 16.0738134,123.871878 18.1314451,122.141868 C19.0086201,121.404359 20.1178885,121 21.2639058,121 Z" id="Rectangle-3" fill="#DF9434"></path>
                <circle id="Oval-21" fill="#8A82FF" cx="87" cy="96" r="10"></circle>
                <circle id="Oval-21-Copy-2" fill="#8A82FF" cx="75" cy="104" r="10"></circle>
                <circle id="Oval-21-Copy-3" fill="#8A82FF" cx="97" cy="100" r="10"></circle>
                <circle id="Oval-21-Copy-4" fill="#8A82FF" cx="97" cy="116" r="10"></circle>
                <circle id="Oval-21-Copy-5" fill="#8A82FF" cx="85" cy="110" r="10"></circle>
                <circle id="Oval-21-Copy-6" fill="#8A82FF" cx="82" cy="126" r="10"></circle>
                <circle id="Oval-21-Copy-7" fill="#8A82FF" cx="80" cy="87" r="10"></circle>
            </g>
        </g>
    </g>
</svg>