<?xml version="1.0" encoding="UTF-8" standalone="no"?>
<svg width="103px" height="115px" viewBox="0 0 103 115" version="1.1" xmlns="http://www.w3.org/2000/svg" xmlns:xlink="http://www.w3.org/1999/xlink">
    <!-- Generator: Sketch 50.2 (55047) - http://www.bohemiancoding.com/sketch -->
    <title>Group 16</title>
    <desc>Created with Sketch.</desc>
    <defs>
        <path d="M0,0.172417343 L44.9880689,0.172417343 L44.9880689,46.9019525 C44.9880689,48.8778771 43.3862655,50.4796805 41.4103409,50.4796805 L3.577728,50.4796805 C1.60180339,50.4796805 4.19601739e-15,48.8778771 4.4408921e-16,46.9019525 L0,0.172417343 Z" id="path-1"></path>
    </defs>
    <g id="Page-1" stroke="none" stroke-width="1" fill="none" fill-rule="evenodd">
        <g id="iPad-Copy-22" transform="translate(-849.000000, -441.000000)">
            <g id="Group-16" transform="translate(842.000000, 431.000000)">
                <g id="Group-6" transform="translate(81.080105, 48.936578) rotate(17.000000) translate(-81.080105, -48.936578) translate(63.052708, 4.074615)">
                    <rect id="Rectangle-46" fill="#FF7979" x="1.33627928" y="12.9107136" width="5.3451171" height="76.5738873" rx="0.894432"></rect>
                    <rect id="Rectangle-46" fill="#FF7979" transform="translate(18.262483, 8.458743) rotate(-289.000000) translate(-18.262483, -8.458743) " x="15.5899249" y="-8.90394038" width="5.3451171" height="34.7253675" rx="0.894432"></rect>
                    <path d="M1.33985843,11.0185776 L6.67781723,11.0185776 C7.17179838,11.0185776 7.57224923,11.4190285 7.57224923,11.9130096 L7.57224923,25.8173891 C7.57224923,26.3113703 7.17179838,26.7118211 6.67781723,26.7118211 L1.33985843,26.7118211 C0.845877272,26.7118211 0.445426425,26.3113703 0.445426425,25.8173891 L0.445426425,11.9130096 C0.445426425,11.4190285 0.845877272,11.0185776 1.33985843,11.0185776 Z" id="Rectangle-46" fill="#FF5858"></path>
                    <path d="M6.18337174,3.76366079 L11.5213359,3.76366079 C12.0153171,3.76366079 12.4157679,4.16411164 12.4157679,4.65809279 L12.4157679,18.8963989 C12.4157679,19.3903801 12.0153171,19.7908309 11.5213359,19.7908309 L6.18337174,19.7908309 C5.68939059,19.7908309 5.28893974,19.3903801 5.28893974,18.8963989 L5.28893974,4.65809279 C5.28893974,4.16411164 5.68939059,3.76366079 6.18337174,3.76366079 Z" id="Rectangle-46" fill="#FF5858" transform="translate(8.852351, 11.777207) rotate(251.000000) translate(-8.852351, -11.777207) "></path>
                </g>
                <g id="Group-5" opacity="0.87669837" transform="translate(26.126503, 38.743733)">
                    <path d="M3.577728,3.05533376e-13 L51.2097223,3.05089287e-13 C53.1856469,3.08236263e-13 54.7874503,1.60180339 54.7874503,3.577728 L54.7874503,80.8693955 C54.7874503,83.420951 52.7190058,85.4893955 50.1674503,85.4893955 L4.62,85.4893955 C2.06844446,85.4893955 -4.40964456e-14,83.420951 -4.4408921e-14,80.8693955 L-4.21884749e-14,3.577728 C-4.24304559e-14,1.60180339 1.60180339,3.06340437e-13 3.577728,3.05977466e-13 Z" id="Rectangle-44-Copy" fill="#ABEFFF"></path>
                    <path d="M10.2537557,2.67106064 L21.3715205,2.67106064 C22.6064734,2.67106064 23.6076005,3.67218776 23.6076005,4.90714064 L23.6076005,60.3201815 C23.6076005,64.6252203 20.117677,68.1151439 15.8126381,68.1151439 L15.8126381,68.1151439 C11.5075992,68.1151439 8.01767565,64.6252203 8.01767565,60.3201815 L8.01767565,4.90714064 C8.01767565,3.67218776 9.01880277,2.67106064 10.2537557,2.67106064 Z" id="Rectangle-44" fill="#E5F5FF"></path>
                </g>
                <g id="Rectangle-4" transform="translate(30.580767, 68.399516)">
                    <mask id="mask-2" fill="white">
                        <use xlink:href="#path-1"></use>
                    </mask>
                    <use id="Mask" fill="#FFA600" xlink:href="#path-1"></use>
                    <rect fill="#FFBC00" mask="url(#mask-2)" x="3.5634114" y="-15.8546753" width="15.5899249" height="45.4100959" rx="1.788864"></rect>
                </g>
                <g id="Group-3" transform="translate(25.848020, 35.273371) scale(-1, 1) rotate(33.000000) translate(-25.848020, -35.273371) translate(2.848020, 23.773371)">
                    <g id="Group">
                        <path d="M2.3919819e-29,22.7215367 C1.80103575e-14,10.1727785 10.1706344,0 22.7167477,0 C35.262861,0 45.4334954,10.1727785 45.4334954,22.7215367 L-2.22044605e-15,22.7215367 Z" id="Combined-Shape" fill="#FFD53D"></path>
                        <path d="M3.64325199,22.7215367 C3.64325199,12.1853152 12.1827469,3.64402004 22.7167477,3.64402004 C33.2507485,3.64402004 41.7902434,12.1853152 41.7902434,22.7215367" id="Combined-Shape" stroke="#FFFFFF" stroke-width="3.00529152"></path>
                        <path d="M0,22.7215367 C0,10.1727785 10.1706344,0 22.7167477,0 C35.262861,0 45.4334954,10.1727785 45.4334954,22.7215367" id="Combined-Shape" stroke="#FFA600" stroke-width="4.2932736"></path>
                        <rect id="Rectangle-45" fill="#FFFFFF" x="22.0738209" y="4.07272828" width="1.50016258" height="18.6488085"></rect>
                        <rect id="Rectangle-45" fill="#FFFFFF" transform="translate(29.896097, 16.183736) scale(-1, 1) rotate(-48.000000) translate(-29.896097, -16.183736) " x="29.1460159" y="6.85933185" width="1.50016258" height="18.6488085"></rect>
                        <rect id="Rectangle-45" fill="#FFFFFF" transform="translate(15.966016, 16.183736) rotate(-48.000000) translate(-15.966016, -16.183736) " x="15.2159348" y="6.85933185" width="1.50016258" height="18.6488085"></rect>
                    </g>
                </g>
            </g>
        </g>
    </g>
</svg>