<?xml version="1.0" encoding="UTF-8" standalone="no"?>
<svg width="49px" height="103px" viewBox="0 0 49 103" version="1.1" xmlns="http://www.w3.org/2000/svg" xmlns:xlink="http://www.w3.org/1999/xlink">
    <!-- Generator: Sketch 50.2 (55047) - http://www.bohemiancoding.com/sketch -->
    <title>Group 43 Copy 2</title>
    <desc>Created with Sketch.</desc>
    <defs>
        <rect id="path-1" x="0" y="0" width="49" height="26.1027397"></rect>
    </defs>
    <g id="Page-1" stroke="none" stroke-width="1" fill="none" fill-rule="evenodd">
        <g id="iPad-Copy-22" transform="translate(-102.000000, -314.000000)">
            <g id="Group-43-Copy-2" transform="translate(102.000000, 314.000000)">
                <g id="Group-8">
                    <g id="Group-19-Copy-2">
                        <path d="M16.1038655,1.4109589 L32.5876309,1.4109589 C34.7218379,1.4109589 36.4519545,3.1410755 36.4519545,5.27528248 C36.4519545,5.31000772 36.4514864,5.34473138 36.4505504,5.379444 L36.0493981,20.2565247 C35.8863194,26.3044371 38.1757716,32.1612929 42.3971602,36.4953116 L42.3971602,36.4953116 C46.6308233,40.8419325 49,46.6698341 49,52.7375369 L49,93.7256234 C49,98.8477202 44.8477202,103 39.7256234,103 L9.27437659,103 C4.15227983,103 6.27275939e-16,98.8477202 0,93.7256234 L0,52.6305622 C-7.35587157e-16,46.6240372 2.30871997,40.8473036 6.44858803,36.4953116 L6.44858803,36.4953116 C10.5766668,32.155713 12.8064245,26.3507042 12.6449818,20.3634605 L12.240946,5.379444 C12.1834191,3.24601247 13.8662724,1.4698898 15.999704,1.41236298 C16.0344166,1.41142697 16.0691402,1.4109589 16.1038655,1.4109589 Z" id="Rectangle-37" fill="#B6F1FF"></path>
                        <path d="M12.7534307,0 L35.5564285,4.4408921e-16 C37.263794,1.3045124e-16 38.6478873,1.38409328 38.6478873,3.09145886 L38.6478873,5.37429456 C38.6478873,7.08166015 37.263794,8.46575342 35.5564285,8.46575342 L12.7534307,8.46575342 C11.0460651,8.46575342 9.66197183,7.08166015 9.66197183,5.37429456 L9.66197183,3.09145886 C9.66197183,1.38409328 11.0460651,7.5772718e-16 12.7534307,4.4408921e-16 Z" id="Rectangle-40" fill="#FC4848"></path>
                        <rect id="Rectangle-22" fill="#DCF8FF" x="15.1830986" y="31.0410959" width="17.943662" height="8.46575342" rx="4.23287671"></rect>
                        <path d="M10.2410389,43.739726 L37.3786794,43.739726 C40.3665692,43.739726 42.7887324,46.1618893 42.7887324,49.149779 L42.7887324,90.4003819 C42.7887324,94.2419545 39.6745225,97.3561644 35.83295,97.3561644 L11.7867684,97.3561644 C7.94519579,97.3561644 4.83098592,94.2419545 4.83098592,90.4003819 L4.83098592,49.149779 C4.83098592,46.1618893 7.25314915,43.739726 10.2410389,43.739726 Z" id="Rectangle-15" fill="#FFFFFF"></path>
                        <rect id="Rectangle-40" fill="#9EE1F1" x="9.66197183" y="8.46575342" width="28.9859155" height="4.93835616" rx="2.46917808"></rect>
                        <g id="Rectangle-42" transform="translate(0.000000, 57.849315)">
                            <mask id="mask-2" fill="white">
                                <use xlink:href="#path-1"></use>
                            </mask>
                            <use id="Mask" fill="#FC4848" xlink:href="#path-1"></use>
                        </g>
                    </g>
                    <rect id="Rectangle-41-Copy-4" fill="#DC3131" x="37.9577465" y="57.8493151" width="11.0422535" height="26.1027397"></rect>
                    <path d="M35.1971831,0 L35.1971831,0 C37.1029544,-3.50084512e-16 38.6478873,1.54493291 38.6478873,3.45070423 L38.6478873,5.0150492 C38.6478873,6.92082052 37.1029544,8.46575342 35.1971831,8.46575342 L35.1971831,8.46575342 C33.2914118,8.46575342 31.7464789,6.92082052 31.7464789,5.0150492 L31.7464789,3.45070423 C31.7464789,1.54493291 33.2914118,3.50084512e-16 35.1971831,0 Z" id="Rectangle-41-Copy-5" fill="#DC3131"></path>
                </g>
            </g>
        </g>
    </g>
</svg>