<?xml version="1.0" encoding="UTF-8" standalone="no"?>
<svg width="67px" height="105px" viewBox="0 0 67 105" version="1.1" xmlns="http://www.w3.org/2000/svg" xmlns:xlink="http://www.w3.org/1999/xlink">
    <!-- Generator: Sketch 50.2 (55047) - http://www.bohemiancoding.com/sketch -->
    <title>Group 2</title>
    <desc>Created with Sketch.</desc>
    <defs></defs>
    <g id="Page-1" stroke="none" stroke-width="1" fill="none" fill-rule="evenodd">
        <g id="iPad-Copy-22" transform="translate(-479.000000, -312.000000)">
            <g id="Group-2" transform="translate(479.000000, 312.000000)">
                <g id="Group-10-Copy">
                    <g id="Group-5">
                        <g id="Group-2-Copy-2">
                            <path d="M35.3589953,-0.652559539 C44.659508,2.64768441 51.3229046,11.5525794 51.3229046,22.0199414 C51.3229046,32.4873035 44.659508,41.3921985 35.3589953,44.6924424 L35.3589953,-0.652559539 Z" id="Combined-Shape" fill="#5ABB1A" transform="translate(43.340950, 22.019941) rotate(-315.000000) translate(-43.340950, -22.019941) "></path>
                            <rect id="Combined-Shape" fill="#ACC14B" x="0.00562048654" y="38.9905037" width="66.4855317" height="65.6698222" rx="32.8349111"></rect>
                            <g id="Group" transform="translate(36.413543, 72.283529)" fill="#91B319">
                                <ellipse id="Oval-4" cx="5.49996216" cy="12.6207161" rx="5.49996216" ry="5.462698"></ellipse>
                                <ellipse id="Oval-4" cx="14.318867" cy="3.29645569" rx="3.31894268" ry="3.29645569"></ellipse>
                            </g>
                            <path d="M44.1837239,25.5676841 L56.4058306,49.8462795 C58.6270669,54.2586527 56.8507994,59.6362557 52.4384262,61.857492 C51.1907696,62.4855757 49.8133529,62.8127216 48.4165221,62.8127216 L17.9803274,62.8127216 C13.0403954,62.8127216 9.03578931,58.8081155 9.03578931,53.8681835 C9.03578931,52.4713527 9.36293515,51.0939361 9.99101894,49.8462795 L22.2131256,25.5676841 C25.2673255,19.5006709 32.6615296,17.0583032 38.7285428,20.112503 C41.0849574,21.2987476 42.9974794,23.2112695 44.1837239,25.5676841 Z" id="Triangle" fill="#ACC14B"></path>
                            <path d="M36.4135426,29.3354211 C36.4135426,25.9023232 33.6114819,23.1192475 30.1549649,23.1192475" id="Oval-12" stroke="#93A830" stroke-width="4.84495813" stroke-linecap="round" stroke-linejoin="round" transform="translate(33.284254, 26.227334) rotate(-225.000000) translate(-33.284254, -26.227334) "></path>
                            <path d="M33.237311,24.129982 C33.237311,20.0346376 29.9043463,16.714705 25.792926,16.714705" id="Oval-12" stroke="#9C6029" stroke-width="6.80437089" stroke-linecap="round" stroke-linejoin="round"></path>
                            <ellipse id="Oval-2" fill="#C1D955" cx="20.4826177" cy="61.314669" rx="10.4309627" ry="10.4037538"></ellipse>
                        </g>
                    </g>
                </g>
            </g>
        </g>
    </g>
</svg>