<?xml version="1.0" encoding="UTF-8" standalone="no"?>
<svg width="86px" height="116px" viewBox="0 0 86 116" version="1.1" xmlns="http://www.w3.org/2000/svg" xmlns:xlink="http://www.w3.org/1999/xlink">
    <!-- Generator: Sketch 50.2 (55047) - http://www.bohemiancoding.com/sketch -->
    <title>Group 5</title>
    <desc>Created with Sketch.</desc>
    <defs>
        <path d="M62.189625,28.0669941 L81.7357567,61.4176073 C89.8030154,75.1823782 85.1842692,92.880735 71.4194983,100.947994 C66.9894016,103.544385 61.9473155,104.913048 56.8124342,104.913048 L29.1848991,104.913048 C13.2302891,104.913048 0.29652221,91.9792813 0.29652221,76.0246713 C0.29652221,70.88979 1.66518509,65.8477039 4.26157671,61.4176073 L23.8077084,28.0669941 C30.0194976,17.4681205 43.6472324,13.9116859 54.246106,20.1234752 C57.529962,22.0480779 60.2650222,24.7831381 62.189625,28.0669941 Z" id="path-1"></path>
    </defs>
    <g id="Page-1" stroke="none" stroke-width="1" fill="none" fill-rule="evenodd">
        <g id="iPad-Copy-22" transform="translate(-279.000000, -103.000000)">
            <g id="Group-5" transform="translate(279.000000, 106.000000)">
                <g id="Group-27" transform="translate(0.000000, 7.617978)">
                    <g id="Oval-37-+-Oval-37-Mask">
                        <path d="M44.3960888,23.6208365 C43.3124382,25.5275613 27.6416868,26.6707069 20.6530143,22.5717613 C13.6643419,18.4728157 6.6534162,3.72071401 7.60669334,2.04338638 C8.55997047,0.366058749 24.6415463,-0.841995952 31.6302187,3.25694968 C38.6188912,7.35589531 45.4797394,21.7141118 44.3960888,23.6208365 Z" id="Oval-2" fill="#4EAD10"></path>
                        <path d="M42.6358196,23.6208365 C43.7194702,25.5275613 59.3902216,26.6707069 66.378894,22.5717613 C73.3675665,18.4728157 80.3784922,3.72071401 79.425215,2.04338638 C78.4719379,0.366058749 62.3903621,-0.841995952 55.4016896,3.25694968 C48.4130172,7.35589531 41.5521689,21.7141118 42.6358196,23.6208365 Z" id="Oval-2" fill="#4EAD10"></path>
                        <mask id="mask-2" fill="white">
                            <use xlink:href="#path-1"></use>
                        </mask>
                        <use id="Mask" fill="#FC4848" transform="translate(43.000859, 60.768800) scale(1, -1) translate(-43.000859, -60.768800) " xlink:href="#path-1"></use>
                        <ellipse id="Oval-37" fill="#FFFFFF" opacity="0.326086957" mask="url(#mask-2)" cx="4.42647059" cy="55.2303371" rx="4.42647059" ry="4.44382022"></ellipse>
                        <ellipse id="Oval-37" fill="#FFFFFF" opacity="0.326086957" mask="url(#mask-2)" cx="80.3088235" cy="55.2303371" rx="4.42647059" ry="4.44382022"></ellipse>
                    </g>
                    <g id="Group-24" transform="translate(6.776699, 0.000000)"></g>
                    <g id="Group-26" transform="translate(10.757282, 4.493290)" fill="#5ABB1A">
                        <path d="M45.3786408,33.9675338 C47.1076481,33.9675338 54.1359223,23.3181971 54.1359223,16.7119438 C54.1359223,10.1056906 46.8996321,-0.808750805 45.3786408,-0.808750805 C43.8576495,-0.808750805 36.6213592,10.1056906 36.6213592,16.7119438 C36.6213592,23.3181971 43.6496334,33.9675338 45.3786408,33.9675338 Z" id="Oval-2" transform="translate(45.378641, 16.579391) scale(1, -1) rotate(-300.000000) translate(-45.378641, -16.579391) "></path>
                        <path d="M19.9029126,33.9675338 C21.63192,33.9675338 28.6601942,23.3181971 28.6601942,16.7119438 C28.6601942,10.1056906 21.4239039,-0.808750805 19.9029126,-0.808750805 C18.3819213,-0.808750805 11.1456311,10.1056906 11.1456311,16.7119438 C11.1456311,23.3181971 18.1739053,33.9675338 19.9029126,33.9675338 Z" id="Oval-2" transform="translate(19.902913, 16.579391) scale(-1, -1) rotate(-300.000000) translate(-19.902913, -16.579391) "></path>
                    </g>
                </g>
                <ellipse id="Oval-37" fill="#FFFFFF" opacity="0.326086957" cx="43.6323529" cy="62.8483146" rx="4.42647059" ry="4.44382022"></ellipse>
                <ellipse id="Oval-37" fill="#FFFFFF" opacity="0.326086957" cx="43.6323529" cy="97.1292135" rx="4.42647059" ry="4.44382022"></ellipse>
                <ellipse id="Oval-37" fill="#FFFFFF" opacity="0.326086957" cx="61.3382353" cy="79.3539326" rx="4.42647059" ry="4.44382022"></ellipse>
                <ellipse id="Oval-37" fill="#FFFFFF" opacity="0.326086957" cx="24.6617647" cy="79.3539326" rx="4.42647059" ry="4.44382022"></ellipse>
                <ellipse id="Oval-37" fill="#FFFFFF" opacity="0.326086957" cx="61.3382353" cy="46.3426966" rx="4.42647059" ry="4.44382022"></ellipse>
                <ellipse id="Oval-37" fill="#FFFFFF" opacity="0.326086957" cx="24.6617647" cy="46.3426966" rx="4.42647059" ry="4.44382022"></ellipse>
                <path d="M43.6323529,19.997191 C42.3676471,11.1095506 46.0563725,4.76123596 54.6985294,0.952247191" id="Path-21" stroke="#5ABB1A" stroke-width="6.351048" stroke-linecap="round" stroke-linejoin="round"></path>
            </g>
        </g>
    </g>
</svg>